<svg width="3405" height="2975" viewBox="0 0 3405 2975" fill="none" xmlns="http://www.w3.org/2000/svg">
<path d="M1353.88 488.972C1327.37 488.972 1303.75 484.414 1283.04 475.3C1262.44 466.067 1246.17 453.401 1234.21 437.303C1222.37 421.086 1216.28 402.383 1215.92 381.195H1293.34C1293.81 390.072 1296.71 397.885 1302.04 404.632C1307.48 411.261 1314.7 416.41 1323.7 420.08C1332.7 423.749 1342.82 425.584 1354.06 425.584C1365.78 425.584 1376.14 423.512 1385.13 419.369C1394.13 415.226 1401.17 409.485 1406.26 402.146C1411.35 394.807 1413.9 386.344 1413.9 376.756C1413.9 367.049 1411.18 358.467 1405.73 351.01C1400.4 343.434 1392.71 337.516 1382.65 333.254C1372.71 328.993 1360.87 326.862 1347.14 326.862H1313.22V270.399H1347.14C1358.74 270.399 1368.98 268.387 1377.86 264.362C1386.85 260.338 1393.84 254.774 1398.81 247.672C1403.78 240.451 1406.26 232.047 1406.26 222.459C1406.26 213.344 1404.07 205.354 1399.69 198.489C1395.43 191.505 1389.4 186.06 1381.58 182.153C1373.89 178.247 1364.89 176.294 1354.6 176.294C1344.18 176.294 1334.65 178.188 1326.01 181.976C1317.37 185.645 1310.44 190.913 1305.23 197.778C1300.03 204.644 1297.24 212.693 1296.89 221.926H1223.2C1223.56 200.974 1229.54 182.509 1241.14 166.528C1252.74 150.548 1268.36 138.06 1288.01 129.064C1307.78 119.949 1330.09 115.392 1354.95 115.392C1380.04 115.392 1402 119.949 1420.82 129.064C1439.64 138.178 1454.26 150.489 1464.68 165.996C1475.22 181.384 1480.42 198.666 1480.31 217.842C1480.42 238.202 1474.09 255.188 1461.31 268.801C1448.64 282.414 1432.13 291.055 1411.77 294.724V297.565C1438.52 300.998 1458.88 310.29 1472.85 325.442C1486.93 340.475 1493.92 359.296 1493.8 381.905C1493.92 402.62 1487.94 421.027 1475.87 437.125C1463.91 453.223 1447.4 465.889 1426.33 475.122C1405.26 484.355 1381.11 488.972 1353.88 488.972Z" fill="#006CA9"/>
<path d="M1352.29 1093.97C1327.19 1093.97 1304.82 1089.36 1285.17 1080.12C1265.64 1070.89 1250.13 1058.16 1238.65 1041.95C1227.17 1025.73 1221.19 1007.15 1220.72 986.195H1295.29C1296.12 1000.28 1302.04 1011.7 1313.05 1020.46C1324.06 1029.22 1337.14 1033.6 1352.29 1033.6C1364.36 1033.6 1375.01 1030.94 1384.25 1025.61C1393.6 1020.17 1400.88 1012.65 1406.09 1003.06C1411.41 993.356 1414.08 982.229 1414.08 969.682C1414.08 956.898 1411.35 945.652 1405.91 935.946C1400.58 926.24 1393.18 918.664 1383.71 913.219C1374.24 907.774 1363.41 904.992 1351.22 904.874C1340.57 904.874 1330.21 907.063 1320.15 911.443C1310.21 915.823 1302.45 921.801 1296.89 929.376L1228.53 917.125L1245.75 725.364H1468.05V788.219H1309.14L1299.73 879.305H1301.86C1308.25 870.309 1317.9 862.852 1330.8 856.933C1343.71 851.015 1358.15 848.055 1374.13 848.055C1396.03 848.055 1415.56 853.205 1432.72 863.503C1449.88 873.801 1463.44 887.946 1473.38 905.939C1483.32 923.813 1488.24 944.41 1488.12 967.729C1488.24 992.232 1482.55 1014.01 1471.07 1033.07C1459.71 1052.01 1443.79 1066.92 1423.31 1077.81C1402.95 1088.59 1379.28 1093.97 1352.29 1093.97Z" fill="#006CA9"/>
<line x1="1190" y1="595" x2="1534" y2="595" stroke="#006CA9" stroke-width="20"/>
<path d="M2308.13 2253.97C2280.78 2253.97 2256.46 2249.53 2235.15 2240.65C2213.96 2231.66 2197.33 2219.41 2185.26 2203.9C2173.18 2188.39 2167.15 2170.82 2167.15 2151.17C2167.15 2136.01 2170.58 2122.11 2177.45 2109.44C2184.43 2096.66 2193.9 2086.06 2205.86 2077.66C2217.81 2069.13 2231.19 2063.69 2245.98 2061.32V2058.84C2226.57 2054.93 2210.83 2045.52 2198.75 2030.61C2186.68 2015.57 2180.64 1998.11 2180.64 1978.23C2180.64 1959.4 2186.15 1942.66 2197.15 1927.98C2208.16 1913.18 2223.26 1901.58 2242.43 1893.18C2261.73 1884.65 2283.62 1880.39 2308.13 1880.39C2332.63 1880.39 2354.47 1884.65 2373.65 1893.18C2392.94 1901.7 2408.09 1913.36 2419.1 1928.15C2430.11 1942.83 2435.67 1959.52 2435.79 1978.23C2435.67 1998.23 2429.52 2015.69 2417.33 2030.61C2405.13 2045.52 2389.51 2054.93 2370.45 2058.84V2061.32C2385.01 2063.69 2398.21 2069.13 2410.05 2077.66C2422 2086.06 2431.47 2096.66 2438.45 2109.44C2445.56 2122.11 2449.17 2136.01 2449.29 2151.17C2449.17 2170.82 2443.07 2188.39 2431 2203.9C2418.92 2219.41 2402.23 2231.66 2380.93 2240.65C2359.74 2249.53 2335.47 2253.97 2308.13 2253.97ZM2308.13 2197.51C2320.32 2197.51 2330.97 2195.32 2340.09 2190.94C2349.2 2186.44 2356.3 2180.29 2361.39 2172.47C2366.6 2164.54 2369.21 2155.43 2369.21 2145.13C2369.21 2134.59 2366.54 2125.3 2361.22 2117.25C2355.89 2109.09 2348.67 2102.69 2339.56 2098.08C2330.44 2093.34 2319.96 2090.97 2308.13 2090.97C2296.41 2090.97 2285.93 2093.34 2276.7 2098.08C2267.47 2102.69 2260.19 2109.09 2254.86 2117.25C2249.65 2125.3 2247.05 2134.59 2247.05 2145.13C2247.05 2155.43 2249.59 2164.54 2254.68 2172.47C2259.77 2180.29 2266.93 2186.44 2276.17 2190.94C2285.4 2195.32 2296.05 2197.51 2308.13 2197.51ZM2308.13 2035.04C2318.31 2035.04 2327.36 2032.97 2335.29 2028.83C2343.22 2024.69 2349.44 2018.95 2353.94 2011.61C2358.44 2004.27 2360.68 1995.8 2360.68 1986.22C2360.68 1976.75 2358.44 1968.46 2353.94 1961.36C2349.44 1954.14 2343.28 1948.51 2335.47 1944.49C2327.66 1940.35 2318.54 1938.28 2308.13 1938.28C2297.83 1938.28 2288.71 1940.35 2280.78 1944.49C2272.85 1948.51 2266.64 1954.14 2262.14 1961.36C2257.76 1968.46 2255.57 1976.75 2255.57 1986.22C2255.57 1995.8 2257.82 2004.27 2262.32 2011.61C2266.82 2018.95 2273.03 2024.69 2280.96 2028.83C2288.89 2032.97 2297.95 2035.04 2308.13 2035.04Z" fill="#FA8F00"/>
<path d="M2305.29 2858.97C2280.19 2858.97 2257.82 2854.36 2238.17 2845.12C2218.64 2835.89 2203.13 2823.16 2191.65 2806.95C2180.17 2790.73 2174.19 2772.15 2173.72 2751.19H2248.29C2249.12 2765.28 2255.04 2776.7 2266.05 2785.46C2277.06 2794.22 2290.14 2798.6 2305.29 2798.6C2317.36 2798.6 2328.01 2795.94 2337.25 2790.61C2346.6 2785.17 2353.88 2777.65 2359.09 2768.06C2364.41 2758.36 2367.08 2747.23 2367.08 2734.68C2367.08 2721.9 2364.35 2710.65 2358.91 2700.95C2353.58 2691.24 2346.18 2683.66 2336.71 2678.22C2327.24 2672.77 2316.41 2669.99 2304.22 2669.87C2293.57 2669.87 2283.21 2672.06 2273.15 2676.44C2263.21 2680.82 2255.45 2686.8 2249.89 2694.38L2181.53 2682.12L2198.75 2490.36H2421.05V2553.22H2262.14L2252.73 2644.31H2254.86C2261.25 2635.31 2270.9 2627.85 2283.8 2621.93C2296.71 2616.01 2311.15 2613.06 2327.13 2613.06C2349.03 2613.06 2368.56 2618.2 2385.72 2628.5C2402.88 2638.8 2416.44 2652.95 2426.38 2670.94C2436.32 2688.81 2441.24 2709.41 2441.12 2732.73C2441.24 2757.23 2435.55 2779.01 2424.07 2798.07C2412.71 2817.01 2396.79 2831.92 2376.31 2842.81C2355.95 2853.59 2332.28 2858.97 2305.29 2858.97Z" fill="#FA8F00"/>
<line x1="2143" y1="2360" x2="2487" y2="2360" stroke="#FA8F00" stroke-width="20"/>
<path d="M385.885 2253.97C359.37 2253.97 335.755 2249.41 315.04 2240.3C294.443 2231.07 278.167 2218.4 266.212 2202.3C254.375 2186.09 248.278 2167.38 247.923 2146.19H325.338C325.812 2155.07 328.712 2162.88 334.038 2169.63C339.483 2176.26 346.704 2181.41 355.7 2185.08C364.696 2188.75 374.817 2190.58 386.062 2190.58C397.781 2190.58 408.139 2188.51 417.135 2184.37C426.131 2180.23 433.174 2174.49 438.264 2167.15C443.354 2159.81 445.899 2151.34 445.899 2141.76C445.899 2132.05 443.177 2123.47 437.732 2116.01C432.405 2108.43 424.711 2102.52 414.649 2098.25C404.706 2093.99 392.869 2091.86 379.138 2091.86H345.224V2035.4H379.138C390.738 2035.4 400.977 2033.39 409.855 2029.36C418.851 2025.34 425.835 2019.77 430.807 2012.67C435.778 2005.45 438.264 1997.05 438.264 1987.46C438.264 1978.34 436.074 1970.35 431.695 1963.49C427.433 1956.5 421.396 1951.06 413.584 1947.15C405.89 1943.25 396.893 1941.29 386.595 1941.29C376.179 1941.29 366.65 1943.19 358.009 1946.98C349.367 1950.65 342.443 1955.91 337.234 1962.78C332.026 1969.64 329.244 1977.69 328.889 1986.93H255.203C255.558 1965.97 261.536 1947.51 273.136 1931.53C284.737 1915.55 300.362 1903.06 320.011 1894.06C339.779 1884.95 362.092 1880.39 386.95 1880.39C412.045 1880.39 434.003 1884.95 452.824 1894.06C471.645 1903.18 486.264 1915.49 496.68 1931C507.215 1946.38 512.424 1963.67 512.305 1982.84C512.424 2003.2 506.091 2020.19 493.307 2033.8C480.641 2047.41 464.128 2056.05 443.768 2059.72V2062.57C470.52 2066 490.88 2075.29 504.848 2090.44C518.934 2105.47 525.918 2124.3 525.8 2146.9C525.918 2167.62 519.94 2186.03 507.866 2202.12C495.911 2218.22 479.398 2230.89 458.328 2240.12C437.258 2249.36 413.11 2253.97 385.885 2253.97Z" fill="#FA8F00"/>
<path d="M387.128 2858.97C359.784 2858.97 335.459 2854.53 314.152 2845.65C292.964 2836.66 276.332 2824.41 264.259 2808.9C252.185 2793.39 246.148 2775.82 246.148 2756.17C246.148 2741.01 249.58 2727.11 256.446 2714.44C263.43 2701.66 272.9 2691.06 284.855 2682.66C296.811 2674.13 310.187 2668.69 324.983 2666.32V2663.84C305.57 2659.93 289.827 2650.52 277.753 2635.61C265.679 2620.57 259.642 2603.11 259.642 2583.23C259.642 2564.4 265.146 2547.66 276.155 2532.98C287.163 2518.18 302.256 2506.58 321.432 2498.18C340.726 2489.65 362.625 2485.39 387.128 2485.39C411.631 2485.39 433.47 2489.65 452.646 2498.18C471.941 2506.7 487.092 2518.36 498.101 2533.15C509.109 2547.83 514.673 2564.52 514.791 2583.23C514.673 2603.23 508.518 2620.69 496.325 2635.61C484.133 2650.52 468.508 2659.93 449.45 2663.84V2666.32C464.01 2668.69 477.208 2674.13 489.045 2682.66C501.001 2691.06 510.471 2701.66 517.455 2714.44C524.557 2727.11 528.167 2741.01 528.286 2756.17C528.167 2775.82 522.071 2793.39 509.997 2808.9C497.923 2824.41 481.233 2836.66 459.926 2845.65C438.738 2854.53 414.472 2858.97 387.128 2858.97ZM387.128 2802.51C399.32 2802.51 409.973 2800.32 419.088 2795.94C428.203 2791.44 435.305 2785.29 440.395 2777.47C445.603 2769.54 448.207 2760.43 448.207 2750.13C448.207 2739.59 445.544 2730.3 440.217 2722.25C434.891 2714.09 427.67 2707.69 418.555 2703.08C409.441 2698.34 398.965 2695.97 387.128 2695.97C375.409 2695.97 364.933 2698.34 355.7 2703.08C346.467 2707.69 339.188 2714.09 333.861 2722.25C328.652 2730.3 326.048 2739.59 326.048 2750.13C326.048 2760.43 328.593 2769.54 333.683 2777.47C338.773 2785.29 345.935 2791.44 355.168 2795.94C364.401 2800.32 375.054 2802.51 387.128 2802.51ZM387.128 2640.04C397.308 2640.04 406.363 2637.97 414.294 2633.83C422.225 2629.69 428.439 2623.95 432.938 2616.61C437.436 2609.27 439.685 2600.8 439.685 2591.22C439.685 2581.75 437.436 2573.46 432.938 2566.36C428.439 2559.14 422.284 2553.51 414.472 2549.49C406.659 2545.35 397.545 2543.28 387.128 2543.28C376.83 2543.28 367.715 2545.35 359.784 2549.49C351.853 2553.51 345.639 2559.14 341.141 2566.36C336.761 2573.46 334.571 2581.75 334.571 2591.22C334.571 2600.8 336.82 2609.27 341.318 2616.61C345.816 2623.95 352.031 2629.69 359.962 2633.83C367.893 2637.97 376.948 2640.04 387.128 2640.04Z" fill="#FA8F00"/>
<line x1="222" y1="2360" x2="566" y2="2360" stroke="#FA8F00" stroke-width="20"/>
<line x1="1367.72" y1="1218.2" x2="571.719" y2="1773.2" stroke="#737370" stroke-width="20"/>
<line x1="1367.79" y1="1201.85" x2="2148.79" y2="1756.85" stroke="#737370" stroke-width="20"/>
<path d="M309.407 1726.43C313.786 1729.79 320.064 1728.97 323.429 1724.59L378.27 1653.23C381.636 1648.85 380.814 1642.58 376.435 1639.21C372.056 1635.84 365.778 1636.67 362.412 1641.05L313.665 1704.48L250.232 1655.73C245.853 1652.36 239.575 1653.19 236.21 1657.57C232.844 1661.94 233.666 1668.22 238.045 1671.59L309.407 1726.43ZM1186.88 293.527C803.098 421.205 555.783 577.626 418.069 803.409C280.39 1029.13 253.528 1322.11 305.585 1719.8L325.415 1717.2C273.56 1321.06 301.039 1033.69 435.143 813.823C569.211 594.019 811.12 439.614 1193.19 312.504L1186.88 293.527Z" fill="#82D1F5"/>
<path d="M2477.11 2674.4C2477.88 2679.87 2482.94 2683.68 2488.41 2682.9L2577.52 2670.29C2582.99 2669.51 2586.79 2664.45 2586.02 2658.98C2585.25 2653.51 2580.18 2649.71 2574.72 2650.48L2495.51 2661.7L2484.29 2582.49C2483.52 2577.02 2478.46 2573.21 2472.99 2573.99C2467.52 2574.76 2463.71 2579.82 2464.49 2585.29L2477.11 2674.4ZM1533.08 917.957C1954.87 957.391 2281.21 1012 2519.43 1090.32C2757.84 1168.71 2906.14 1270.26 2974.61 1402.19C3042.94 1533.84 3033.21 1698.6 2948.67 1907.04C2864.14 2115.46 2705.52 2365.77 2479.01 2666.99L2495 2679.01C2721.77 2377.43 2881.67 2125.45 2967.2 1914.56C3052.72 1703.7 3064.59 1532.14 2992.36 1392.98C2920.28 1254.08 2765.85 1150.29 2525.67 1071.32C2285.3 992.289 1957.17 937.519 1534.94 898.044L1533.08 917.957Z" fill="#82D1F5"/>
<circle cx="1362" cy="2370" r="147.5" stroke="#006CA9" stroke-width="5"/>
<path d="M1343.88 2443.17V2292.32H1382.02V2443.17H1343.88ZM1287.53 2386.82V2348.68H1438.38V2386.82H1287.53Z" fill="#737370"/>
<path d="M1216.09 2323.12C1221.13 2320.86 1223.38 2314.95 1221.12 2309.91L1184.3 2227.79C1182.04 2222.75 1176.12 2220.49 1171.08 2222.75C1166.04 2225.01 1163.79 2230.93 1166.05 2235.97L1198.78 2308.97L1125.79 2341.7C1120.75 2343.96 1118.49 2349.88 1120.75 2354.92C1123.01 2359.96 1128.93 2362.21 1133.97 2359.95L1216.09 2323.12ZM562.441 2077.35L1208.44 2323.35L1215.56 2304.65L569.559 2058.65L562.441 2077.35Z" fill="#82D1F5"/>
<path d="M1508.14 2404.77C1503.05 2406.9 1500.64 2412.76 1502.77 2417.86L1537.48 2500.89C1539.61 2505.99 1545.47 2508.39 1550.56 2506.26C1555.66 2504.13 1558.06 2498.28 1555.93 2493.18L1525.08 2419.37L1598.89 2388.52C1603.99 2386.39 1606.39 2380.53 1604.26 2375.44C1602.13 2370.34 1596.28 2367.94 1591.18 2370.07L1508.14 2404.77ZM2146.8 2663.75L1515.8 2404.75L1508.2 2423.25L2139.2 2682.25L2146.8 2663.75Z" fill="#82D1F5"/>
<path d="M556.805 2669.07C554.634 2674.15 556.99 2680.02 562.068 2682.19L644.82 2717.58C649.898 2719.75 655.774 2717.4 657.946 2712.32C660.117 2707.24 657.761 2701.36 652.683 2699.19L579.126 2667.74L610.581 2594.18C612.753 2589.1 610.396 2583.23 605.318 2581.05C600.24 2578.88 594.363 2581.24 592.192 2586.32L556.805 2669.07ZM1208.28 2404.72L562.279 2663.72L569.721 2682.28L1215.72 2423.28L1208.28 2404.72Z" fill="#82D1F5"/>
<path d="M2152.16 2072.02C2154.38 2066.96 2152.08 2061.06 2147.02 2058.84L2064.61 2022.67C2059.55 2020.45 2053.65 2022.75 2051.43 2027.8C2049.21 2032.86 2051.51 2038.76 2056.57 2040.98L2129.82 2073.14L2097.67 2146.39C2095.45 2151.45 2097.75 2157.35 2102.8 2159.57C2107.86 2161.79 2113.76 2159.49 2115.98 2154.43L2152.16 2072.02ZM1515.63 2323.32L2146.63 2077.32L2139.37 2058.68L1508.37 2304.68L1515.63 2323.32Z" fill="#82D1F5"/>
</svg>
